<mxfile host="app.diagrams.net" modified="2023-12-03T06:04:32.561Z" agent="Mozilla/5.0 (Windows NT 10.0; Win64; x64) AppleWebKit/537.36 (KHTML, like Gecko) Chrome/119.0.0.0 Safari/537.36" etag="L9nGiLNWSNvKGtMeVpQT" version="22.1.5" type="github">
  <diagram id="C5RBs43oDa-KdzZeNtuy" name="Page-1">
    <mxGraphModel dx="3860" dy="4732" grid="1" gridSize="10" guides="1" tooltips="1" connect="1" arrows="1" fold="1" page="1" pageScale="1" pageWidth="827" pageHeight="1169" math="0" shadow="0">
      <root>
        <mxCell id="WIyWlLk6GJQsqaUBKTNV-0" />
        <mxCell id="WIyWlLk6GJQsqaUBKTNV-1" parent="WIyWlLk6GJQsqaUBKTNV-0" />
        <mxCell id="N5PV2EzXh5DM1njIMYpt-36" value="&lt;p style=&quot;line-height: 20%;&quot;&gt;&lt;font style=&quot;font-size: 13px;&quot;&gt;Front End&lt;/font&gt;&lt;/p&gt;" style="rounded=1;whiteSpace=wrap;html=1;dashed=1;align=center;verticalAlign=top;" vertex="1" parent="WIyWlLk6GJQsqaUBKTNV-1">
          <mxGeometry x="-320" y="-2310" width="1170" height="1010" as="geometry" />
        </mxCell>
        <mxCell id="N5PV2EzXh5DM1njIMYpt-37" style="edgeStyle=orthogonalEdgeStyle;rounded=0;orthogonalLoop=1;jettySize=auto;html=1;exitX=1;exitY=0.5;exitDx=0;exitDy=0;entryX=0.5;entryY=0;entryDx=0;entryDy=0;" edge="1" parent="WIyWlLk6GJQsqaUBKTNV-1" source="N5PV2EzXh5DM1njIMYpt-36" target="N5PV2EzXh5DM1njIMYpt-4">
          <mxGeometry relative="1" as="geometry" />
        </mxCell>
        <mxCell id="N5PV2EzXh5DM1njIMYpt-38" value="Api&amp;nbsp; to Report Page Views&lt;br&gt;&lt;br&gt;View Count= 1&lt;br&gt;Pages visited=[text]&lt;br&gt;&lt;br&gt;&lt;br&gt;When User opens website, I want to see the View Count increase since I have one user now&lt;br&gt;&lt;br&gt;&lt;br&gt;When User is staying for more than 2 minutes, I would like to get an array of routes they visited&amp;nbsp;&lt;br&gt;" style="edgeLabel;html=1;align=center;verticalAlign=middle;resizable=0;points=[];" vertex="1" connectable="0" parent="N5PV2EzXh5DM1njIMYpt-37">
          <mxGeometry x="0.1173" y="1" relative="1" as="geometry">
            <mxPoint x="-64" y="26" as="offset" />
          </mxGeometry>
        </mxCell>
        <mxCell id="N5PV2EzXh5DM1njIMYpt-4" value="Admin DashBoard&lt;br&gt;&lt;br&gt;Login/ Sign Up" style="rounded=1;whiteSpace=wrap;html=1;" vertex="1" parent="WIyWlLk6GJQsqaUBKTNV-1">
          <mxGeometry x="1948" y="-1780" width="240" height="151" as="geometry" />
        </mxCell>
        <mxCell id="N5PV2EzXh5DM1njIMYpt-2" value="&lt;p style=&quot;line-height: 20%;&quot;&gt;&lt;font style=&quot;font-size: 13px;&quot;&gt;Store Page&lt;/font&gt;&lt;/p&gt;" style="rounded=1;whiteSpace=wrap;html=1;dashed=1;align=center;fillColor=#f5f5f5;fontColor=#333333;strokeColor=#666666;verticalAlign=top;arcSize=3;" vertex="1" parent="WIyWlLk6GJQsqaUBKTNV-1">
          <mxGeometry x="-30" y="-1780" width="574" height="430" as="geometry" />
        </mxCell>
        <mxCell id="N5PV2EzXh5DM1njIMYpt-7" style="edgeStyle=orthogonalEdgeStyle;rounded=0;orthogonalLoop=1;jettySize=auto;html=1;entryX=0.5;entryY=0;entryDx=0;entryDy=0;" edge="1" parent="WIyWlLk6GJQsqaUBKTNV-1" source="N5PV2EzXh5DM1njIMYpt-3" target="N5PV2EzXh5DM1njIMYpt-2">
          <mxGeometry relative="1" as="geometry" />
        </mxCell>
        <mxCell id="N5PV2EzXh5DM1njIMYpt-53" value="" style="edgeStyle=orthogonalEdgeStyle;rounded=0;orthogonalLoop=1;jettySize=auto;html=1;entryX=0.5;entryY=0;entryDx=0;entryDy=0;" edge="1" parent="WIyWlLk6GJQsqaUBKTNV-1" source="N5PV2EzXh5DM1njIMYpt-5" target="N5PV2EzXh5DM1njIMYpt-54">
          <mxGeometry relative="1" as="geometry">
            <mxPoint x="1990" y="-450" as="targetPoint" />
          </mxGeometry>
        </mxCell>
        <mxCell id="N5PV2EzXh5DM1njIMYpt-5" value="Payments" style="rounded=1;whiteSpace=wrap;html=1;" vertex="1" parent="WIyWlLk6GJQsqaUBKTNV-1">
          <mxGeometry x="1810" y="-980" width="240" height="150" as="geometry" />
        </mxCell>
        <mxCell id="N5PV2EzXh5DM1njIMYpt-24" style="edgeStyle=orthogonalEdgeStyle;rounded=0;orthogonalLoop=1;jettySize=auto;html=1;exitX=1;exitY=0.5;exitDx=0;exitDy=0;entryX=0;entryY=0.5;entryDx=0;entryDy=0;" edge="1" parent="WIyWlLk6GJQsqaUBKTNV-1" source="N5PV2EzXh5DM1njIMYpt-12" target="N5PV2EzXh5DM1njIMYpt-14">
          <mxGeometry relative="1" as="geometry" />
        </mxCell>
        <mxCell id="N5PV2EzXh5DM1njIMYpt-12" value="Cart" style="rounded=1;whiteSpace=wrap;html=1;" vertex="1" parent="WIyWlLk6GJQsqaUBKTNV-1">
          <mxGeometry x="610" y="-1710" width="173" height="150" as="geometry" />
        </mxCell>
        <mxCell id="N5PV2EzXh5DM1njIMYpt-40" style="edgeStyle=orthogonalEdgeStyle;rounded=0;orthogonalLoop=1;jettySize=auto;html=1;exitX=1;exitY=0.5;exitDx=0;exitDy=0;entryX=0;entryY=0.5;entryDx=0;entryDy=0;" edge="1" parent="WIyWlLk6GJQsqaUBKTNV-1" source="N5PV2EzXh5DM1njIMYpt-14" target="N5PV2EzXh5DM1njIMYpt-5">
          <mxGeometry relative="1" as="geometry" />
        </mxCell>
        <mxCell id="N5PV2EzXh5DM1njIMYpt-14" value="Processing" style="rounded=1;whiteSpace=wrap;html=1;" vertex="1" parent="WIyWlLk6GJQsqaUBKTNV-1">
          <mxGeometry x="1360" y="-1360" width="240" height="150" as="geometry" />
        </mxCell>
        <mxCell id="N5PV2EzXh5DM1njIMYpt-18" style="edgeStyle=orthogonalEdgeStyle;rounded=0;orthogonalLoop=1;jettySize=auto;html=1;exitX=0.5;exitY=0;exitDx=0;exitDy=0;entryX=0.538;entryY=1.013;entryDx=0;entryDy=0;entryPerimeter=0;" edge="1" parent="WIyWlLk6GJQsqaUBKTNV-1" source="N5PV2EzXh5DM1njIMYpt-14" target="N5PV2EzXh5DM1njIMYpt-4">
          <mxGeometry relative="1" as="geometry" />
        </mxCell>
        <mxCell id="N5PV2EzXh5DM1njIMYpt-20" style="edgeStyle=orthogonalEdgeStyle;rounded=0;orthogonalLoop=1;jettySize=auto;html=1;exitX=1;exitY=0.5;exitDx=0;exitDy=0;entryX=1;entryY=0.433;entryDx=0;entryDy=0;entryPerimeter=0;" edge="1" parent="WIyWlLk6GJQsqaUBKTNV-1" source="N5PV2EzXh5DM1njIMYpt-5" target="N5PV2EzXh5DM1njIMYpt-4">
          <mxGeometry relative="1" as="geometry" />
        </mxCell>
        <mxCell id="N5PV2EzXh5DM1njIMYpt-42" style="edgeStyle=orthogonalEdgeStyle;rounded=0;orthogonalLoop=1;jettySize=auto;html=1;exitX=0.5;exitY=0;exitDx=0;exitDy=0;entryX=1;entryY=0.5;entryDx=0;entryDy=0;" edge="1" parent="WIyWlLk6GJQsqaUBKTNV-1" source="N5PV2EzXh5DM1njIMYpt-34" target="N5PV2EzXh5DM1njIMYpt-6">
          <mxGeometry relative="1" as="geometry" />
        </mxCell>
        <mxCell id="N5PV2EzXh5DM1njIMYpt-34" value="Database" style="rounded=1;whiteSpace=wrap;html=1;fillColor=#fad9d5;strokeColor=#ae4132;" vertex="1" parent="WIyWlLk6GJQsqaUBKTNV-1">
          <mxGeometry x="94" y="-1150" width="450" height="680" as="geometry" />
        </mxCell>
        <mxCell id="N5PV2EzXh5DM1njIMYpt-3" value="Home Page" style="rounded=1;whiteSpace=wrap;html=1;fillColor=#b1ddf0;strokeColor=#10739e;" vertex="1" parent="WIyWlLk6GJQsqaUBKTNV-1">
          <mxGeometry x="135" y="-2150" width="240" height="150" as="geometry" />
        </mxCell>
        <mxCell id="N5PV2EzXh5DM1njIMYpt-47" style="edgeStyle=orthogonalEdgeStyle;rounded=0;orthogonalLoop=1;jettySize=auto;html=1;exitX=0.5;exitY=0;exitDx=0;exitDy=0;entryX=0.5;entryY=1;entryDx=0;entryDy=0;" edge="1" parent="WIyWlLk6GJQsqaUBKTNV-1" source="N5PV2EzXh5DM1njIMYpt-6" target="N5PV2EzXh5DM1njIMYpt-12">
          <mxGeometry relative="1" as="geometry" />
        </mxCell>
        <mxCell id="N5PV2EzXh5DM1njIMYpt-6" value="Product Catalog Container" style="rounded=1;whiteSpace=wrap;html=1;direction=south;fillColor=#f5f5f5;fontColor=#333333;strokeColor=#666666;" vertex="1" parent="WIyWlLk6GJQsqaUBKTNV-1">
          <mxGeometry x="130" y="-1670" width="380" height="300" as="geometry" />
        </mxCell>
        <mxCell id="N5PV2EzXh5DM1njIMYpt-54" value="&lt;b&gt;&lt;font style=&quot;font-size: 28px;&quot;&gt;Full Fill ORDER/Delivery&lt;/font&gt;&lt;/b&gt;" style="ellipse;whiteSpace=wrap;html=1;" vertex="1" parent="WIyWlLk6GJQsqaUBKTNV-1">
          <mxGeometry x="1700" y="-500" width="460" height="200" as="geometry" />
        </mxCell>
        <mxCell id="N5PV2EzXh5DM1njIMYpt-60" style="edgeStyle=orthogonalEdgeStyle;rounded=0;orthogonalLoop=1;jettySize=auto;html=1;entryX=0.5;entryY=0;entryDx=0;entryDy=0;" edge="1" parent="WIyWlLk6GJQsqaUBKTNV-1" source="N5PV2EzXh5DM1njIMYpt-55" target="N5PV2EzXh5DM1njIMYpt-3">
          <mxGeometry relative="1" as="geometry">
            <Array as="points">
              <mxPoint x="-540" y="-2220" />
              <mxPoint x="255" y="-2220" />
            </Array>
          </mxGeometry>
        </mxCell>
        <mxCell id="N5PV2EzXh5DM1njIMYpt-62" style="edgeStyle=orthogonalEdgeStyle;rounded=0;orthogonalLoop=1;jettySize=auto;html=1;entryX=0;entryY=0.5;entryDx=0;entryDy=0;" edge="1" parent="WIyWlLk6GJQsqaUBKTNV-1" source="N5PV2EzXh5DM1njIMYpt-55" target="N5PV2EzXh5DM1njIMYpt-2">
          <mxGeometry relative="1" as="geometry">
            <Array as="points">
              <mxPoint x="-540" y="-2220" />
              <mxPoint x="-130" y="-2220" />
              <mxPoint x="-130" y="-1555" />
            </Array>
          </mxGeometry>
        </mxCell>
        <mxCell id="N5PV2EzXh5DM1njIMYpt-55" value="CUSTOMER" style="ellipse;whiteSpace=wrap;html=1;fillColor=#d5e8d4;strokeColor=#82b366;" vertex="1" parent="WIyWlLk6GJQsqaUBKTNV-1">
          <mxGeometry x="-850" y="-3000" width="620" height="260" as="geometry" />
        </mxCell>
      </root>
    </mxGraphModel>
  </diagram>
</mxfile>
